<svg width="25" height="25" viewBox="0 0 25 25" fill="none" xmlns="http://www.w3.org/2000/svg">
<path d="M25 12.5C25 19.4036 19.4036 25 12.5 25C5.59644 25 0 19.4036 0 12.5C0 5.59644 5.59644 0 12.5 0C19.4036 0 25 5.59644 25 12.5Z" fill="white"/>
<path fill-rule="evenodd" clip-rule="evenodd" d="M12.5 23C18.299 23 23 18.299 23 12.5C23 6.70101 18.299 2 12.5 2C6.70101 2 2 6.70101 2 12.5C2 18.299 6.70101 23 12.5 23ZM12.5 25C19.4036 25 25 19.4036 25 12.5C25 5.59644 19.4036 0 12.5 0C5.59644 0 0 5.59644 0 12.5C0 19.4036 5.59644 25 12.5 25Z" fill="#FE4E8E"/>
<path d="M11.1874 9.88126H13.7916V20.8333H11.1874V9.88126ZM12.4999 8.07642C12.0277 8.07642 11.6319 7.93286 11.3124 7.64573C10.993 7.34492 10.8333 6.97575 10.8333 6.53821C10.8333 6.10068 10.993 5.73834 11.3124 5.45121C11.6319 5.1504 12.0277 5 12.4999 5C12.9721 5 13.368 5.14357 13.6874 5.4307C14.0069 5.70416 14.1666 6.05282 14.1666 6.47668C14.1666 6.92789 14.0069 7.31074 13.6874 7.62522C13.3819 7.92602 12.986 8.07642 12.4999 8.07642Z" fill="#FE4E8E"/>
</svg>
