<svg width="66" height="66" viewBox="0 0 66 66" fill="none" xmlns="http://www.w3.org/2000/svg">
<path d="M32.6 65.2C14.6327 65.2 0 50.5672 0 32.6C0 14.6327 14.6327 0 32.6 0C50.5672 0 65.2 14.6327 65.2 32.6C65.2 50.5672 50.5672 65.2 32.6 65.2ZM32.6 6.90445C18.438 6.90445 6.90445 18.438 6.90445 32.6C6.90445 46.762 18.438 58.2563 32.5608 58.2563C46.7227 58.2563 58.2171 46.7227 58.2171 32.6C58.2563 18.438 46.762 6.90445 32.6 6.90445Z" fill="#CDC1B2"/>
<path d="M49.7825 23.0671C48.4487 21.7333 46.2519 21.7333 44.8788 23.0671L31.0699 36.876L22.2432 28.0101C20.9094 26.6763 18.7125 26.6763 17.3395 28.0101C16.0057 29.3439 16.0057 31.5408 17.3395 32.9138L28.6377 44.212C29.3046 44.8789 30.2069 45.232 31.0699 45.232C31.9722 45.232 32.8353 44.8789 33.5022 44.212C33.5806 44.1335 33.6199 44.0943 33.6591 44.0159C33.7375 43.9766 33.7768 43.8982 33.8552 43.8589L49.7433 27.9709C51.1164 26.5978 51.1164 24.4009 49.7825 23.0671Z" fill="#CDC1B2"/>
</svg>
