<svg width="101" height="87" viewBox="0 0 101 87" fill="none" xmlns="http://www.w3.org/2000/svg">
<g clip-path="url(#clip0_2709_48291)">
<path d="M77.6807 86.5429C73.7436 86.3905 69.5038 85.6287 66.1724 83.3432C65.7181 84.2574 65.1124 85.0192 64.2039 85.4763C64.0525 85.4763 64.0525 85.6287 63.9011 85.6287C63.7496 85.6287 63.7496 85.781 63.5982 85.781C63.5982 85.781 63.5982 85.781 63.4468 85.781C62.9925 85.9334 62.5382 85.9334 62.084 85.9334H58.1469H40.4303H37.0989C35.7361 85.9334 34.5247 85.9334 34.5247 85.9334C31.3448 85.4763 33.4648 80.9054 38.1589 81.0577L43.6102 81.3625H43.7616C39.0675 78.7723 36.039 74.5061 36.039 69.3257C36.039 67.6497 36.3418 66.126 36.9475 64.6024H36.7961C36.3418 64.45 35.8876 64.2977 35.4333 63.9929L35.2819 65.5166L35.1304 67.0402C34.0705 69.1733 33.3133 77.2486 33.0105 80.6006C33.1619 83.0385 33.0105 85.9334 28.7706 86.0858H26.4993C24.985 85.9334 24.2279 85.6287 23.925 85.0192C23.4708 84.2574 24.0765 83.1908 24.8336 82.429C25.7421 81.5148 26.9535 81.0577 27.7106 80.2959C27.7106 76.6392 27.8621 67.9544 27.5592 66.4308L25.7421 59.2696V58.3555C24.985 57.746 24.3793 57.1365 23.6222 56.5271L12.4168 55.0034C12.1139 56.3747 11.5082 57.8984 11.2054 59.1173C10.7511 60.9457 11.8111 62.0122 11.5082 63.0788C10.2969 67.6497 5.6027 69.9351 5.14843 66.4308C5.14843 65.9737 5.14843 65.3642 5.14843 64.6024L6.35982 59.2696L6.66267 57.746C6.81409 56.9842 7.57121 54.2416 8.17691 51.9562C8.63118 50.2802 9.994 49.2136 11.5082 49.0612C12.4168 48.9089 13.3253 48.9089 14.2339 48.9089L17.4138 48.7565C17.2624 48.6041 17.1109 48.2994 17.1109 48.1471L16.9595 47.9947C16.3538 46.9281 15.7481 45.7092 15.4453 44.3379C14.8396 42.2048 14.5367 39.9194 14.8396 37.6339C14.991 36.8721 15.1424 36.1103 15.2939 35.3485C15.1424 34.5866 14.991 33.8248 14.8396 32.9106C14.6882 32.1488 14.6882 31.2346 14.6882 30.1681C14.6882 26.359 17.4138 23.3117 16.051 21.9404C14.8396 20.2644 13.6282 20.8739 10.5997 21.6357C9.994 21.788 9.53973 21.788 8.93403 21.788C8.78261 21.788 8.47976 21.788 8.32834 21.788C8.17691 21.788 8.02549 21.788 7.87406 21.788C6.81409 21.9404 5.75412 21.6357 4.84558 21.0262C4.23988 20.7215 3.78561 20.112 3.33133 19.5026C3.33133 19.3502 3.17991 19.3502 3.17991 19.1978C3.02849 19.0455 3.02849 18.8931 2.87706 18.7408L1.05997 15.9982L0.151425 14.4746C-0.151424 13.7127 0.151425 12.9509 0.757122 12.4938L2.57421 11.5796L6.51124 9.29417L7.11694 8.98944C8.17691 8.37998 9.69115 7.0087 9.994 5.94215L10.2969 4.8756C10.2969 4.57087 10.4483 4.26614 10.5997 3.96142C13.0225 -0.914241 25.1364 -0.91424 28.0135 3.04723C28.3163 3.04723 28.4678 3.50432 28.7706 3.96142C30.2849 7.16107 33.3133 15.5411 35.4333 20.8739L36.6447 23.7688L41.036 29.711C42.8531 30.9299 44.2159 32.1488 45.5787 33.2154C47.093 34.4343 48.4558 35.8055 49.8186 37.1768C51.1814 38.7005 52.5442 40.3765 54.0585 42.6619L60.1154 51.3467C63.7496 56.6795 64.5067 58.8126 65.5667 63.6882C66.021 64.9071 66.3238 66.126 66.3238 67.345C66.3238 67.4973 66.3238 67.6497 66.3238 67.802C66.3238 69.3257 67.5352 74.5061 68.1409 76.0297C68.8981 77.8581 70.4123 79.3817 72.078 80.2959C74.6522 81.8196 76.4693 81.3625 79.3463 82.1243C79.952 82.2767 80.5577 82.429 81.1634 82.429C82.072 82.429 82.9805 82.5814 83.8891 82.7337C85.1005 82.8861 86.4633 82.8861 87.6747 83.0385C92.066 83.3432 96.7601 83.9527 100.849 86.8476C100.091 86.8476 99.4858 86.8476 98.7286 86.9999C91.7631 87.1523 84.7976 86.9999 77.6807 86.5429Z" fill="#CDC1B2"/>
</g>
<defs>
<clipPath id="clip0_2709_48291">
<rect width="101" height="87" fill="white"/>
</clipPath>
</defs>
</svg>
