<svg width="18" height="16" viewBox="0 0 18 16" fill="none" xmlns="http://www.w3.org/2000/svg">
<path d="M18 0.407959L17.7863 0.389233C17.7863 0.389233 17.7863 0.389233 17.7863 0.39057L13.0269 0L12.8378 1.97693L14.404 2.10533L12.6025 3.59137C11.2657 2.52132 9.52474 1.8726 7.62354 1.8726C3.41984 1.8726 0 5.0413 0 8.9363C0 12.8313 3.41984 16 7.62354 16C11.8273 16 15.2471 12.8313 15.2471 8.9363C15.2471 7.51714 14.7924 6.19428 14.0114 5.08544L15.7596 3.64488L15.7191 4.97977L17.86 5.03595L17.9957 0.607256H17.9942L18 0.407959ZM7.62354 14.0137C4.60069 14.0137 2.14083 11.7345 2.14083 8.93362C2.14083 6.13275 4.60069 3.85354 7.62354 3.85354C10.6464 3.85354 13.1063 6.13275 13.1063 8.93362C13.1063 11.7345 10.6464 14.0137 7.62354 14.0137Z" fill="#CDC1B2"/>
</svg>
