<svg width="63" height="78" viewBox="0 0 63 78" fill="none" xmlns="http://www.w3.org/2000/svg">
<g clip-path="url(#clip0_2709_48293)">
<path d="M0.330418 65.3101C0.770977 63.8879 1.98252 62.5752 2.86364 61.153C3.63462 59.9496 4.18532 58.7463 4.51574 57.5429C4.84616 56.4489 5.17657 55.355 5.39685 54.1516C5.72728 52.62 5.72727 51.3073 6.05769 49.3381C5.94755 49.0099 5.72728 48.5724 5.61713 48.2442C3.3042 41.6804 1.76224 34.7883 0.881119 27.8963C0.110138 21.8795 -0.110142 15.7533 0.330418 9.73646C0.440559 8.0955 0.550697 6.56395 0.881119 4.92299C0.991257 3.61023 1.32168 2.40687 1.76224 1.0941C1.87238 0.656515 2.09266 0.218927 2.42308 0.10953C2.97378 -0.21866 3.74476 0.218927 3.96504 0.875309C4.18532 1.42229 4.18531 2.18807 4.07518 2.73506C3.63462 7.32973 3.52448 11.9244 3.74476 16.6285C4.18532 23.4111 5.39685 30.0843 7.37937 36.5387C7.70979 37.6327 8.04021 38.7266 8.92133 39.383C9.36189 39.8206 10.0227 40.0394 10.5734 40.1488C15.0892 38.6172 20.0455 38.3984 24.7815 38.6172C29.7378 38.836 34.6941 39.6018 39.6503 40.0394C40.5315 40.1488 41.6329 40.1488 42.4038 39.6018C42.9545 39.2736 43.1748 38.7266 43.5052 38.1797C44.2762 36.8669 44.9371 35.5541 45.5979 34.132C45.5979 33.8038 45.5979 33.585 45.5979 33.2568V33.1474C45.708 31.8346 46.1486 30.6313 46.6993 29.4279C46.8094 29.0997 46.9196 28.8809 47.0297 28.5527C47.25 28.2245 47.4703 27.8963 47.8007 27.5682C48.1311 26.2554 48.2413 24.8332 48.6818 23.5205C48.792 23.1923 48.9021 22.9735 49.0122 22.6453C49.1224 22.4265 49.2325 22.2077 49.4528 22.0983C49.8934 22.8641 50.2238 23.6299 50.5542 24.2862C50.6643 23.6299 50.8846 22.9735 51.1049 22.4265C51.215 22.2077 51.3252 21.9889 51.5455 21.8795C52.3164 23.1923 52.8671 24.6144 53.528 26.0366C53.8584 26.0366 54.0787 26.0366 54.4091 26.146C55.2902 26.2554 55.8409 26.4742 56.3916 26.8024C57.6031 27.5682 58.5944 28.7715 59.8059 29.5373C60.4668 29.8655 61.1276 30.1937 61.7885 30.5219C62.0087 30.6313 62.229 30.8501 62.3392 31.0689C62.4493 31.1783 62.4493 31.1783 62.5594 31.2876C62.7797 31.6158 63 31.944 63 32.2722C63 32.491 63 32.7098 63 32.9286C63 33.038 63 33.1474 63 33.2568V33.3662C62.8899 33.9132 62.7797 34.4602 62.5594 34.8977C62.3392 35.4447 62.1189 35.8823 61.6783 36.2105C61.2378 36.5387 60.6871 36.7575 60.2465 36.8669C58.8147 37.4139 57.2727 37.7421 55.7308 38.1797C55.5105 40.5864 55.4004 43.3213 55.1801 45.728C55.0699 46.822 54.9598 47.916 54.8497 49.0099C54.6294 50.7603 54.299 52.4013 53.528 53.9328C53.3077 54.261 53.1976 54.5892 52.9773 54.9174C52.757 55.902 52.6469 56.7771 52.4266 57.7617C52.2063 58.7463 52.0962 59.7308 51.8759 60.7154C51.4353 63.3409 50.9948 66.0759 50.8846 68.8108C50.8846 69.2484 50.8846 69.7954 50.9948 70.2329C51.1049 70.5611 51.3252 70.9987 51.5455 71.3269C51.986 72.0927 52.4266 72.9679 52.8671 73.7337C52.9773 73.9525 53.0874 74.0619 53.1976 74.1712C53.3077 74.39 53.6381 74.39 53.9685 74.4994C54.9598 74.7182 55.951 75.7028 56.2815 76.6874C56.3916 76.9062 56.3916 77.0156 56.2815 77.125C56.1713 77.2344 56.0612 77.2344 55.951 77.2344C54.7395 77.3438 53.4178 77.3438 52.2063 77.3438C51.8759 77.3438 51.6556 77.3438 51.3252 77.125C51.1049 77.0156 50.7745 76.7968 50.5542 76.578C49.7832 75.7028 49.1224 74.7182 48.4615 73.7337C47.6906 72.6397 47.0297 71.5457 46.2587 70.4518C46.0385 70.1236 45.8182 69.7954 45.708 69.4672C45.5979 69.7954 45.5979 70.1236 45.5979 70.4518C45.5979 70.7799 45.708 71.1081 45.8182 71.4363C45.9283 71.7645 46.0385 71.9833 46.1486 72.3115C46.3689 72.7491 46.479 73.2961 46.6993 73.7337C46.8094 73.9525 46.8094 74.0619 46.9196 74.1712C47.1399 74.39 47.4703 74.4994 47.8007 74.4994C48.792 74.7182 49.5629 75.5934 49.6731 76.578C49.6731 76.6874 49.6731 76.9062 49.5629 77.0156C49.4528 77.125 49.3427 77.125 49.1224 77.125C47.9108 77.2344 46.5892 77.2344 45.3776 77.125C45.0472 77.125 44.8269 77.125 44.6066 77.0156C44.3864 76.9062 44.1661 76.6874 43.9458 76.4686C43.285 75.7028 42.8444 74.7182 42.4038 73.843C41.8531 72.7491 41.4126 71.7645 40.8619 70.6705C40.6416 70.2329 40.4213 69.7954 40.3112 69.2484C40.201 68.592 40.3112 68.045 40.3112 67.3886C40.4213 66.6228 40.5315 65.9665 40.5315 65.2007C40.5315 64.9819 40.5315 64.7631 40.6416 64.6537C40.7517 64.2161 40.7517 63.7785 40.7517 63.2315C40.8619 62.0282 41.0822 60.8248 40.8619 59.6214C37.6678 59.5121 34.4738 58.7463 31.2797 57.8711C27.7552 56.9959 24.2308 56.0114 20.5962 56.0114C19.6049 58.6369 17.9528 61.153 15.8601 63.1222C15.5297 63.4503 15.0892 63.8879 14.6486 64.2161C13.7675 64.9819 12.6661 65.7477 12.1154 66.7322C11.1241 68.4826 11.4545 70.6705 11.8951 72.6397C11.8951 72.7491 11.8951 72.8585 12.0052 72.9679C12.1154 73.5149 12.3357 74.1712 12.7762 74.6088C13.4371 75.2652 14.6486 75.7028 14.4283 76.6874C14.3182 77.3438 13.4371 77.5625 12.7762 77.6719C11.5647 77.7813 10.243 77.8907 9.25175 77.125C8.70105 76.6874 8.48077 76.1404 8.15035 75.5934C8.04021 75.2652 7.93007 74.8276 7.81993 74.4994C7.26923 72.4209 6.60839 70.3423 6.05769 68.2638C5.94755 67.9356 5.83741 67.6074 5.83741 67.2792C4.62587 68.9202 4.51574 70.9987 4.40559 72.8585C4.40559 73.5149 4.40559 74.2806 4.73601 74.8276C5.17657 75.484 6.27797 75.9216 5.83741 76.9062C5.50699 77.5626 4.84615 77.7813 4.18531 77.8907C2.97377 78.0001 1.54196 78.1095 0.770981 77.3438C0.110142 76.6874 0.110138 75.7028 0 74.6088C-0.110142 72.5303 -0.110142 70.4517 -0.22028 68.3732C0 67.3886 0 66.2947 0.330418 65.3101Z" fill="#CDC1B2"/>
</g>
<defs>
<clipPath id="clip0_2709_48293">
<rect width="63" height="78" fill="white" transform="matrix(-1 0 0 1 63 0)"/>
</clipPath>
</defs>
</svg>
