<svg width="15" height="20" viewBox="0 0 15 20" fill="none" xmlns="http://www.w3.org/2000/svg">
<path d="M14.7368 7.21547C14.7368 3.23678 11.4314 0 7.36842 0C3.30539 0 0 3.23678 0 7.21547C0 10.8498 2.75845 13.8653 6.33313 14.3599V16.3014H3.66817V18.3276H6.33313V20H8.40232V18.3276H11.0673V16.3014H8.40232V14.3599C11.977 13.8653 14.7368 10.8498 14.7368 7.21547ZM2.06919 7.21547C2.06919 4.35442 4.44673 2.02623 7.36842 2.02623C10.2901 2.02623 12.6677 4.35442 12.6677 7.21547C12.6677 10.0765 10.2901 12.4047 7.36842 12.4047C4.44673 12.4047 2.06919 10.0765 2.06919 7.21547Z" fill="#CDC1B2"/>
</svg>
